HIERARCHY
ROOT Hips
{
  OFFSET 5.72205e-005 65.662 3.42586
  CHANNELS 6 Xposition Yposition Zposition Zrotation Xrotation Yrotation
  JOINT Chest
  {
    OFFSET 0 8.7983 -4.7612
    CHANNELS 6 Xposition Yposition Zposition Zrotation Xrotation Yrotation
    JOINT Chest2
    {
      OFFSET 0 8.0291 0.4195
      CHANNELS 6 Xposition Yposition Zposition Zrotation Xrotation Yrotation
      JOINT Chest3
      {
        OFFSET 0 9.9351 -2.2114
        CHANNELS 6 Xposition Yposition Zposition Zrotation Xrotation Yrotation
        JOINT Neck
        {
          OFFSET 0 22.3885 -0.4656
          CHANNELS 6 Xposition Yposition Zposition Zrotation Xrotation Yrotation
          JOINT Head
          {
            OFFSET -0.0001 12.643 3.4389
            CHANNELS 6 Xposition Yposition Zposition Zrotation Xrotation Yrotation
            End Site
            {
              OFFSET 0.0001 17.6655 0.5274
            }
          }
        }
        JOINT LeftCollar
        {
          OFFSET 2.2603 21.606 7.4023
          CHANNELS 6 Xposition Yposition Zposition Zrotation Xrotation Yrotation
          JOINT LeftShoulder
          {
            OFFSET 13.5163 -1.1332 -5.0146
            CHANNELS 6 Xposition Yposition Zposition Zrotation Xrotation Yrotation
            JOINT LeftElbow
            {
              OFFSET -0.0995 -28.05 -0.2431
              CHANNELS 6 Xposition Yposition Zposition Zrotation Xrotation Yrotation
              JOINT LeftWrist
              {
                OFFSET 0.0679 -23.3996 -0.1402
                CHANNELS 6 Xposition Yposition Zposition Zrotation Xrotation Yrotation
                JOINT LeftFinger1
                {
                  OFFSET 0.7932 -9.069 2.5189
                  CHANNELS 6 Xposition Yposition Zposition Zrotation Xrotation Yrotation
                  JOINT LeftFinger11
                  {
                    OFFSET -0.8272 -3.3923 0.5977
                    CHANNELS 6 Xposition Yposition Zposition Zrotation Xrotation Yrotation
                    JOINT LeftFinger12
                    {
                      OFFSET -0.5649 -2.3158 0.4082
                      CHANNELS 6 Xposition Yposition Zposition Zrotation Xrotation Yrotation
                      End Site
                      {
                        OFFSET -0.4919 -1.6479 0.2673
                      }
                    }
                  }
                }
                JOINT LeftFinger2
                {
                  OFFSET 0.9159 -9.2044 0.2193
                  CHANNELS 6 Xposition Yposition Zposition Zrotation Xrotation Yrotation
                  JOINT LeftFinger21
                  {
                    OFFSET 0.0117 -4.1944 -0.0248
                    CHANNELS 6 Xposition Yposition Zposition Zrotation Xrotation Yrotation
                    JOINT LeftFinger22
                    {
                      OFFSET 0.0071 -2.3249 -0.0142
                      CHANNELS 6 Xposition Yposition Zposition Zrotation Xrotation Yrotation
                      End Site
                      {
                        OFFSET -0.1475 -2.0882 0.0028
                      }
                    }
                  }
                }
                JOINT LeftFinger3
                {
                  OFFSET 0.6113 -8.7231 -2.0637
                  CHANNELS 6 Xposition Yposition Zposition Zrotation Xrotation Yrotation
                  JOINT LeftFinger31
                  {
                    OFFSET -0.1927 -3.8059 -0.2383
                    CHANNELS 6 Xposition Yposition Zposition Zrotation Xrotation Yrotation
                    JOINT LeftFinger32
                    {
                      OFFSET -0.1091 -2.1688 -0.1362
                      CHANNELS 6 Xposition Yposition Zposition Zrotation Xrotation Yrotation
                      End Site
                      {
                        OFFSET -0.2358 -1.9176 -0.0906
                      }
                    }
                  }
                }
                JOINT LeftFinger4
                {
                  OFFSET -0.6151 -8.0947 -3.5641
                  CHANNELS 6 Xposition Yposition Zposition Zrotation Xrotation Yrotation
                  JOINT LeftFinger41
                  {
                    OFFSET -0.4882 -2.341 -0.6462
                    CHANNELS 6 Xposition Yposition Zposition Zrotation Xrotation Yrotation
                    JOINT LeftFinger42
                    {
                      OFFSET -0.3575 -1.7167 -0.4742
                      CHANNELS 6 Xposition Yposition Zposition Zrotation Xrotation Yrotation
                      End Site
                      {
                        OFFSET -0.4187 -1.5237 -0.3496
                      }
                    }
                  }
                }
                JOINT LeftFinger0
                {
                  OFFSET -1.42 -1.8761 1.4223
                  CHANNELS 6 Xposition Yposition Zposition Zrotation Xrotation Yrotation
                  JOINT LeftFinger01
                  {
                    OFFSET -1.1471 -3.4929 2.6334
                    CHANNELS 6 Xposition Yposition Zposition Zrotation Xrotation Yrotation
                    JOINT LeftFinger02
                    {
                      OFFSET -0.823 -2.3 1.6571
                      CHANNELS 6 Xposition Yposition Zposition Zrotation Xrotation Yrotation
                      End Site
                      {
                        OFFSET -0.5822 -1.6914 1.1582
                      }
                    }
                  }
                }
              }
            }
          }
        }
        JOINT RightCollar
        {
          OFFSET -2.2603 21.606 7.4023
          CHANNELS 6 Xposition Yposition Zposition Zrotation Xrotation Yrotation
          JOINT RightShoulder
          {
            OFFSET -13.5187 -1.1334 -5.0155
            CHANNELS 6 Xposition Yposition Zposition Zrotation Xrotation Yrotation
            JOINT RightElbow
            {
              OFFSET 0.0994 -28.0499 -0.2431
              CHANNELS 6 Xposition Yposition Zposition Zrotation Xrotation Yrotation
              JOINT RightWrist
              {
                OFFSET -0.0679 -23.3996 -0.1402
                CHANNELS 6 Xposition Yposition Zposition Zrotation Xrotation Yrotation
                JOINT RightFinger1
                {
                  OFFSET -0.7932 -9.0691 2.5189
                  CHANNELS 6 Xposition Yposition Zposition Zrotation Xrotation Yrotation
                  JOINT RightFinger11
                  {
                    OFFSET 0.8272 -3.3923 0.5977
                    CHANNELS 6 Xposition Yposition Zposition Zrotation Xrotation Yrotation
                    JOINT RightFinger12
                    {
                      OFFSET 0.565 -2.3158 0.4082
                      CHANNELS 6 Xposition Yposition Zposition Zrotation Xrotation Yrotation
                      End Site
                      {
                        OFFSET 0.4919 -1.6479 0.2673
                      }
                    }
                  }
                }
                JOINT RightFinger2
                {
                  OFFSET -0.916 -9.2044 0.2193
                  CHANNELS 6 Xposition Yposition Zposition Zrotation Xrotation Yrotation
                  JOINT RightFinger21
                  {
                    OFFSET -0.0117 -4.1944 -0.0248
                    CHANNELS 6 Xposition Yposition Zposition Zrotation Xrotation Yrotation
                    JOINT RightFinger22
                    {
                      OFFSET -0.0071 -2.3249 -0.0142
                      CHANNELS 6 Xposition Yposition Zposition Zrotation Xrotation Yrotation
                      End Site
                      {
                        OFFSET 0.1475 -2.0882 0.0028
                      }
                    }
                  }
                }
                JOINT RightFinger3
                {
                  OFFSET -0.6113 -8.7231 -2.0637
                  CHANNELS 6 Xposition Yposition Zposition Zrotation Xrotation Yrotation
                  JOINT RightFinger31
                  {
                    OFFSET 0.1927 -3.8059 -0.2383
                    CHANNELS 6 Xposition Yposition Zposition Zrotation Xrotation Yrotation
                    JOINT RightFinger32
                    {
                      OFFSET 0.1091 -2.1688 -0.1362
                      CHANNELS 6 Xposition Yposition Zposition Zrotation Xrotation Yrotation
                      End Site
                      {
                        OFFSET 0.2358 -1.9176 -0.0906
                      }
                    }
                  }
                }
                JOINT RightFinger4
                {
                  OFFSET 0.6151 -8.0947 -3.564
                  CHANNELS 6 Xposition Yposition Zposition Zrotation Xrotation Yrotation
                  JOINT RightFinger41
                  {
                    OFFSET 0.4882 -2.341 -0.6462
                    CHANNELS 6 Xposition Yposition Zposition Zrotation Xrotation Yrotation
                    JOINT RightFinger42
                    {
                      OFFSET 0.3574 -1.7166 -0.4742
                      CHANNELS 6 Xposition Yposition Zposition Zrotation Xrotation Yrotation
                      End Site
                      {
                        OFFSET 0.4187 -1.5237 -0.3496
                      }
                    }
                  }
                }
                JOINT RightFinger0
                {
                  OFFSET 1.4199 -1.8761 1.4221
                  CHANNELS 6 Xposition Yposition Zposition Zrotation Xrotation Yrotation
                  JOINT RightFinger01
                  {
                    OFFSET 1.1472 -3.4929 2.6336
                    CHANNELS 6 Xposition Yposition Zposition Zrotation Xrotation Yrotation
                    JOINT RightFinger02
                    {
                      OFFSET 0.8229 -2.3 1.6571
                      CHANNELS 6 Xposition Yposition Zposition Zrotation Xrotation Yrotation
                      End Site
                      {
                        OFFSET 0.5822 -1.6914 1.1582
                      }
                    }
                  }
                }
              }
            }
          }
        }
      }
    }
  }
  JOINT RightHip
  {
    OFFSET -9.412 3.9771 -0.7758
    CHANNELS 6 Xposition Yposition Zposition Zrotation Xrotation Yrotation
    JOINT RightKnee
    {
      OFFSET -0.7531 -40.938 0
      CHANNELS 6 Xposition Yposition Zposition Zrotation Xrotation Yrotation
      JOINT RightAnkle
      {
        OFFSET 0 -40.1986 0
        CHANNELS 6 Xposition Yposition Zposition Zrotation Xrotation Yrotation
        JOINT RightToe
        {
          OFFSET 0 -4.4182 9.239
          CHANNELS 6 Xposition Yposition Zposition Zrotation Xrotation Yrotation
          End Site
          {
            OFFSET 0 0 6.1981
          }
        }
      }
    }
  }
  JOINT LeftHip
  {
    OFFSET 9.4119 3.9773 -0.7758
    CHANNELS 6 Xposition Yposition Zposition Zrotation Xrotation Yrotation
    JOINT LeftKnee
    {
      OFFSET 0.7532 -40.9383 0
      CHANNELS 6 Xposition Yposition Zposition Zrotation Xrotation Yrotation
      JOINT LeftAnkle
      {
        OFFSET 0 -40.1986 0
        CHANNELS 6 Xposition Yposition Zposition Zrotation Xrotation Yrotation
        JOINT LeftToe
        {
          OFFSET 0 -4.4182 9.239
          CHANNELS 6 Xposition Yposition Zposition Zrotation Xrotation Yrotation
          End Site
          {
            OFFSET 0 0 6.1981
          }
        }
      }
    }
  }
}
MOTION
Frames:	4
Frame Time:	0.0333333
3.02466 -1.18373 -47.3548 90.1444 -87.3629 0.137871 0 8.7983 -4.7612 -2.99561 -0.730846 -0.945054 0 8.0291 0.4195 -6.00357 -1.4112 -1.92727 1.77636e-015 9.9351 -2.2114 -6.00356 -1.4112 -1.92726 0 22.3885 -0.4656 -8.38668 6.56992 5.5438 -0.0001 12.643 3.4389 -1.19848 -4.60329 11.8292 2.2603 21.606 7.4023 -2.1118 -14.2058 -14.0418 13.5163 -1.1332 -5.0146 36.0845 -20.243 48.2024 -0.0995 -28.05 -0.2431 -55.3215 -1.51698 -3.71802 0.0679 -23.3996 -0.1402 -42.3317 3.23051 5.03761 0.7932 -9.069 2.5189 -6.14362e-006 4.49848e-006 5.47799e-006 -0.8272 -3.3923 0.5977 1.35036e-005 -4.40824e-006 -6.20812e-006 -0.5649 -2.3158 0.4082 7.75756e-007 1.4993e-006 -3.49584e-007 0.9159 -9.2044 0.2193 -6.14362e-006 4.49848e-006 5.47799e-006 0.0117 -4.1944 -0.0248 -0.0128553 0.00233494 8.68969e-005 0.0071 -2.3249 -0.0142 1.28529e-005 -1.48749e-006 -4.95391e-007 0.6113 -8.7231 -2.0637 -6.14362e-006 4.49848e-006 5.47799e-006 -0.1927 -3.8059 -0.2383 -0.0160077 0.00298218 0.000854472 -0.1091 -2.1688 -0.1362 -1.59028e-015 0 6.36111e-015 -0.6151 -8.0947 -3.5641 -6.14362e-006 4.49848e-006 5.47799e-006 -0.4882 -2.341 -0.6462 -0.0126187 0.00312843 0.0028329 -0.3575 -1.7167 -0.4742 -3.18055e-015 2.30365e-006 -3.18055e-015 -1.42 -1.8761 1.4223 -6.14362e-006 4.49848e-006 5.47799e-006 -1.1471 -3.4929 2.6334 1.35036e-005 -4.40824e-006 -6.20812e-006 -0.823 -2.3 1.6571 7.75756e-007 1.4993e-006 -3.49584e-007 -2.2603 21.606 7.4023 20.4028 5.07193 13.9981 -13.5187 -1.1334 -5.0155 -31.6513 -17.1242 -19.8534 0.0994 -28.0499 -0.2431 28.7777 -47.3206 -58.2838 -0.0679 -23.3996 -0.1402 57.461 39.6717 15.6022 -0.7932 -9.0691 2.5189 -5.38416e-006 -2.8467e-006 -3.40482e-006 0.8272 -3.3923 0.5977 9.25215e-007 2.77244e-006 -3.4064e-006 0.565 -2.3158 0.4082 2.64834e-031 -4.77083e-015 3.18055e-015 -0.916 -9.2044 0.2193 -5.38416e-006 -2.8467e-006 -3.40482e-006 -0.0117 -4.1944 -0.0248 0.0129736 0.00232305 -8.71539e-005 -0.0071 -2.3249 -0.0142 -9.25023e-007 -1.62371e-006 3.40636e-006 -0.6113 -8.7231 -2.0637 -5.38416e-006 -2.8467e-006 -3.40482e-006 0.1927 -3.8059 -0.2383 0.0163762 0.00304324 -0.000870028 0.1091 -2.1688 -0.1362 7.15625e-015 -3.18055e-015 -1.27222e-014 0.6151 -8.0947 -3.564 -5.38416e-006 -2.8467e-006 -3.40482e-006 0.4882 -2.341 -0.6462 0.0146136 0.0036826 -0.00327209 0.3574 -1.7166 -0.4742 -1.50828e-006 -9.78536e-008 6.47552e-007 1.4199 -1.8761 1.4221 -5.38416e-006 -2.8467e-006 -3.40482e-006 1.1472 -3.4929 2.6336 9.25215e-007 2.77244e-006 -3.4064e-006 0.8229 -2.3 1.6571 2.64834e-031 -4.77083e-015 3.18055e-015 -9.412 3.9771 -0.7758 10.3165 -2.29207 -17.7808 -0.7531 -40.938 8.88179e-016 -83.0999 62.824 56.3468 -1.77636e-015 -40.1986 0 13.1041 4.2744 5.89369 1.77636e-015 -4.4182 9.239 -5.95189e-008 1.54719e-009 -8.39158e-007 9.4119 3.9773 -0.7758 15.0612 -22.9294 15.6844 0.7532 -40.9383 0 -63.8983 43.7188 41.2452 8.88179e-016 -40.1986 1.77636e-015 17.1978 18.6161 4.89738 0 -4.4182 9.239 1.32989e-005 -3.81851e-007 -2.54755e-006 
3.19267 -1.18399 -47.3177 90.1093 -86.7094 0.103197 0 8.7983 -4.7612 -3.00053 -0.94109 -0.947558 0 8.0291 0.4195 -6.01739 -1.83117 -1.94347 -1.77636e-015 9.9351 -2.2114 -6.0174 -1.83117 -1.94346 0 22.3885 -0.4656 -8.40446 6.14816 5.63393 -0.0001 12.643 3.4389 -1.22083 -4.75257 12.2034 2.2603 21.606 7.4023 -2.30739 -13.8464 -14.0476 13.5163 -1.1332 -5.0146 36.0845 -20.243 48.2024 -0.0995 -28.05 -0.2431 -55.3215 -1.51699 -3.71803 0.0679 -23.3996 -0.1402 -42.3123 3.43322 5.02458 0.7932 -9.06901 2.5189 -1.99081e-006 -1.41979e-006 -4.39884e-006 -0.8272 -3.3923 0.5977 6.36111e-015 3.18055e-015 9.54166e-015 -0.5649 -2.3158 0.4082 -3.53113e-031 3.18055e-015 6.36111e-015 0.9159 -9.20441 0.2193 -1.99081e-006 -1.41979e-006 -4.39884e-006 0.0117 -4.1944 -0.0248 -0.0128357 0.00232826 9.00891e-005 0.0071 -2.3249 -0.0142 -7.75978e-007 -1.49758e-006 3.49384e-007 0.6113 -8.7231 -2.0637 -1.99081e-006 -1.41979e-006 -4.39884e-006 -0.1927 -3.8059 -0.2383 -0.0161203 0.00301188 0.000868614 -0.1091 -2.1688 -0.1362 6.5571e-008 -6.53415e-007 2.68018e-006 -0.6151 -8.0947 -3.5641 -1.99081e-006 -1.41979e-006 -4.39884e-006 -0.4882 -2.341 -0.6462 -0.0125742 0.00311975 0.00282194 -0.3575 -1.7167 -0.4742 -8.1984e-006 1.08538e-006 -1.60394e-006 -1.42 -1.8761 1.4223 -1.99081e-006 -1.41979e-006 -4.39884e-006 -1.1471 -3.4929 2.6334 6.36111e-015 3.18055e-015 9.54166e-015 -0.823 -2.3 1.6571 -3.53113e-031 3.18055e-015 6.36111e-015 -2.2603 21.606 7.4023 20.4028 5.07196 13.9981 -13.5187 -1.1334 -5.0155 -31.6512 -17.1242 -19.8534 0.0994 -28.0499 -0.2431 28.7776 -47.3205 -58.2839 -0.0679 -23.3996 -0.1402 57.4609 39.6717 15.6023 -0.7932 -9.0691 2.5189 7.95139e-016 -4.77083e-015 3.18055e-015 0.8272 -3.3923 0.5977 -7.95139e-016 -4.77083e-015 3.18055e-015 0.565 -2.3158 0.4082 -7.95139e-016 -3.18055e-015 -0 -0.916 -9.2044 0.2193 7.95139e-016 -4.77083e-015 3.18055e-015 -0.0117 -4.1944 -0.0248 0.0129389 0.00231171 -8.72042e-005 -0.0071 -2.3249 -0.0142 -7.15625e-015 3.18055e-015 -0 -0.6113 -8.7231 -2.0637 7.95139e-016 -4.77083e-015 3.18055e-015 0.1927 -3.8059 -0.2383 0.0163523 0.00304012 -0.000882284 0.1091 -2.1688 -0.1362 2.38542e-015 1.59028e-015 6.36111e-015 0.6151 -8.0947 -3.564 7.95139e-016 -4.77083e-015 3.18055e-015 0.4882 -2.341 -0.6462 0.014557 0.00367212 -0.00325799 0.3574 -1.7166 -0.4742 -2.38542e-015 -1.59028e-015 -1.27222e-014 1.4199 -1.8761 1.4221 7.95139e-016 -4.77083e-015 3.18055e-015 1.1472 -3.4929 2.6336 -7.95139e-016 -4.77083e-015 3.18055e-015 0.8229 -2.3 1.6571 -7.95139e-016 -3.18055e-015 -0 -9.412 3.9771 -0.7758 10.3452 -3.10767 -17.6798 -0.7531 -40.938 4.44089e-016 -83.5933 62.8147 56.7798 -1.77636e-015 -40.1986 0 13.1115 4.26116 5.88603 0 -4.4182 9.239 1.0626e-005 2.53656e-006 5.50675e-007 9.4119 3.9773 -0.7758 15.2745 -23.5461 16.0669 0.7532 -40.9383 0 -64.0487 43.6344 41.2845 -3.10862e-015 -40.1986 8.88179e-016 17.4106 18.7265 4.80269 -1.33227e-015 -4.4182 9.239 9.65656e-006 -2.9455e-007 5.09896e-007 
3.36108 -1.1842 -47.2817 90.086 -86.056 0.0802374 -2.22045e-016 8.7983 -4.7612 -3.00545 -1.15132 -0.95008 0 8.0291 0.4195 -6.03137 -2.25106 -1.9598 -1.77636e-015 9.9351 -2.2114 -6.03138 -2.25106 -1.9598 -3.55271e-015 22.3885 -0.4656 -8.42167 5.7261 5.72393 -0.0001 12.643 3.4389 -1.2422 -4.90205 12.5778 2.2603 21.606 7.4023 -2.50273 -13.4869 -14.0521 13.5163 -1.1332 -5.0146 36.0845 -20.243 48.2025 -0.0995 -28.05 -0.2431 -55.3215 -1.51696 -3.71802 0.0679 -23.3996 -0.1402 -42.2928 3.63593 5.01146 0.7932 -9.069 2.5189 2.76554e-006 3.54027e-007 4.05023e-006 -0.8272 -3.3923 0.5977 -1.98939e-006 -1.2886e-006 -4.39946e-006 -0.5649 -2.3158 0.4082 -1.76556e-031 1.59028e-015 6.36111e-015 0.9159 -9.2044 0.2193 2.76554e-006 3.54027e-007 4.05023e-006 0.0117 -4.1944 -0.0248 -0.0128782 0.002331 7.33199e-005 0.0071 -2.3249 -0.0142 3.18055e-015 -1.59028e-015 9.54166e-015 0.6113 -8.7231 -2.0637 2.76554e-006 3.54027e-007 4.05023e-006 -0.1927 -3.8059 -0.2383 -0.0160237 0.00299025 0.000854178 -0.1091 -2.1688 -0.1362 3.18055e-015 6.36111e-015 6.36111e-015 -0.6151 -8.0947 -3.5641 2.76554e-006 3.54027e-007 4.05023e-006 -0.4882 -2.341 -0.6462 -0.0126524 0.00313245 0.00283418 -0.3575 -1.7167 -0.4742 4.77083e-015 3.18055e-015 -3.18055e-015 -1.42 -1.8761 1.4223 2.76554e-006 3.54027e-007 4.05023e-006 -1.1471 -3.4929 2.6334 -1.98939e-006 -1.2886e-006 -4.39946e-006 -0.823 -2.3 1.6571 -1.76556e-031 1.59028e-015 6.36111e-015 -2.2603 21.606 7.4023 20.4028 5.07196 13.9982 -13.5187 -1.1334 -5.0155 -31.6513 -17.1242 -19.8535 0.0994 -28.0499 -0.2431 28.7777 -47.3205 -58.2838 -0.0679 -23.3996 -0.1402 57.4609 39.6717 15.6023 -0.7932 -9.0691 2.5189 7.95139e-016 0 3.18055e-015 0.8272 -3.3923 0.5977 5.87096e-006 4.69619e-006 6.04323e-006 0.565 -2.3158 0.4082 3.02527e-006 2.46251e-006 -1.28188e-006 -0.916 -9.2044 0.2193 7.95139e-016 0 3.18055e-015 -0.0117 -4.1944 -0.0248 0.0129427 0.00231802 -8.94851e-005 -0.0071 -2.3249 -0.0142 -6.36111e-015 1.59028e-015 9.54166e-015 -0.6113 -8.7231 -2.0637 7.95139e-016 0 3.18055e-015 0.1927 -3.8059 -0.2383 0.0163263 0.00303827 -0.000872502 0.1091 -2.1688 -0.1362 -6.36111e-015 1.59028e-015 -3.18055e-015 0.6151 -8.0947 -3.564 7.95139e-016 0 3.18055e-015 0.4882 -2.341 -0.6462 0.0146096 0.00368681 -0.00326327 0.3574 -1.7166 -0.4742 3.18055e-015 1.59028e-015 -0 1.4199 -1.8761 1.4221 7.95139e-016 0 3.18055e-015 1.1472 -3.4929 2.6336 5.87096e-006 4.69619e-006 6.04323e-006 0.822901 -2.3 1.6571 3.02527e-006 2.46251e-006 -1.28188e-006 -9.412 3.9771 -0.7758 10.3753 -3.92347 -17.5784 -0.7531 -40.938 8.88178e-016 -84.0871 62.8039 57.2132 8.88178e-016 -40.1986 1.77636e-015 13.119 4.24798 5.87846 1.77636e-015 -4.4182 9.239 -5.87416e-008 8.51346e-007 -8.3905e-007 9.4119 3.9773 -0.7758 15.4935 -24.1611 16.4537 0.7532 -40.9383 -3.55271e-015 -64.1987 43.5498 41.3228 -1.77636e-015 -40.1986 1.77636e-015 17.6238 18.8367 4.70753 -1.77636e-015 -4.4182 9.239 1.32862e-005 -1.8077e-006 -3.03851e-007 
3.52983 -1.18435 -47.2466 90.0692 -85.4028 0.0638492 2.22045e-016 8.7983 -4.7612 -3.01041 -1.3615 -0.952635 0 8.0291 0.4195 -6.04551 -2.67087 -1.97627 -1.77636e-015 9.9351 -2.2114 -6.04555 -2.67087 -1.97628 0 22.3885 -0.4656 -8.4382 5.30376 5.81376 -0.0001 12.643 3.4389 -1.26262 -5.05176 12.9524 2.2603 21.606 7.4023 -2.69775 -13.1276 -14.0554 13.5163 -1.1332 -5.0146 36.0846 -20.243 48.2025 -0.0995 -28.05 -0.2431 -55.3215 -1.51697 -3.71804 0.0679 -23.3996 -0.1402 -42.2733 3.83862 4.99827 0.7932 -9.06901 2.5189 2.06736e-014 -2.06736e-014 -1.27222e-014 -0.8272 -3.3923 0.5977 2.22639e-014 -1.74931e-014 -0 -0.5649 -2.3158 0.4082 7.76355e-007 1.49485e-006 -3.49021e-007 0.9159 -9.20441 0.2193 2.06736e-014 -2.06736e-014 -1.27222e-014 0.0117 -4.1944 -0.0248 -0.0127705 0.00231299 8.65615e-005 0.0071 -2.3249 -0.0142 -2.39981e-006 4.04257e-006 -1.63113e-006 0.6113 -8.72311 -2.0637 2.06736e-014 -2.06736e-014 -1.27222e-014 -0.1927 -3.8059 -0.2383 -0.0160718 0.00300076 0.00086486 -0.1091 -2.1688 -0.1362 -1.59028e-015 -1.59028e-015 -0 -0.6151 -8.09471 -3.5641 2.06736e-014 -2.06736e-014 -1.27222e-014 -0.4882 -2.341 -0.6462 -0.0125836 0.00312026 0.00282483 -0.3575 -1.7167 -0.4742 7.76389e-007 1.49462e-006 -3.48982e-007 -1.42 -1.8761 1.4223 2.06736e-014 -2.06736e-014 -1.27222e-014 -1.1471 -3.4929 2.6334 2.22639e-014 -1.74931e-014 -0 -0.823 -2.3 1.6571 7.76355e-007 1.49485e-006 -3.49021e-007 -2.2603 21.606 7.4023 20.4028 5.07195 13.9982 -13.5187 -1.1334 -5.0155 -31.6513 -17.1242 -19.8534 0.0994 -28.0499 -0.2431 28.7777 -47.3205 -58.2838 -0.0679 -23.3996 -0.1402 57.4609 39.6717 15.6023 -0.7932 -9.0691 2.5189 -1.29813e-005 -1.30456e-006 1.95508e-006 0.8272 -3.3923 0.5977 5.45551e-006 -9.85588e-007 -5.34335e-006 0.565 -2.3158 0.4082 -1.27229e-005 -2.06292e-006 2.3084e-006 -0.916 -9.2044 0.2193 -1.29813e-005 -1.30456e-006 1.95508e-006 -0.0117 -4.1944 -0.0248 0.0129194 0.00231249 -9.10195e-005 -0.0071 -2.3249 -0.0142 -6.05999e-006 -4.20907e-006 2.55034e-006 -0.6113 -8.7231 -2.0637 -1.29813e-005 -1.30456e-006 1.95508e-006 0.1927 -3.8059 -0.2383 0.0162844 0.00302571 -0.000874674 0.1091 -2.1688 -0.1362 -7.51489e-006 5.95365e-007 1.05454e-006 0.6151 -8.0947 -3.564 -1.29813e-005 -1.30456e-006 1.95508e-006 0.4882 -2.341 -0.6462 0.0145875 0.00367875 -0.00326208 0.3574 -1.7166 -0.4742 -6.73009e-006 -1.14295e-006 -2.55326e-006 1.4199 -1.8761 1.4221 -1.29813e-005 -1.30456e-006 1.95508e-006 1.1472 -3.4929 2.6336 5.45551e-006 -9.85588e-007 -5.34335e-006 0.8229 -2.3 1.6571 -1.27229e-005 -2.06292e-006 2.3084e-006 -9.412 3.9771 -0.7758 10.4072 -4.73893 -17.4765 -0.7531 -40.938 -4.44089e-016 -84.5806 62.7912 57.6464 -1.77636e-015 -40.1986 -1.77636e-015 13.1266 4.23476 5.87084 -3.55271e-015 -4.4182 9.239 5.83508e-008 8.65027e-007 8.38994e-007 9.4119 3.9773 -0.7758 15.7182 -24.7745 16.8449 0.7532 -40.9383 -7.10543e-015 -64.348 43.4652 41.3605 0 -40.1986 8.88178e-016 17.8371 18.9465 4.6119 0 -4.4182 9.239 2.87318e-006 -7.72968e-007 4.09897e-006 
